<svg id="图层_1" data-name="图层 1" xmlns="http://www.w3.org/2000/svg" viewBox="0 0 250 250"><title>broken_heart</title><path d="M735.92,733.39h0L713.67,696l19.74-4.09L758,685.66l-17.7-29.17L722.2,628.35c-1.16-15,7.53-41.16,45.77-41.61h0c44.54-.48,60.72,39.87,61.1,80.41.77,84.4-79.26,115.59-124,169.59Zm-16.07-1.63L705,836.74c-46.72-51.44-125.24-89-125.95-166.69-.38-40.53,15.11-80.8,59.56-81.81h0c14.69-.33,37.68,11,44,20l50.74,66.85-45.63,11h0l32.07,45.64Z" transform="translate(-579.07 -586.74)" style="fill:#e61a2e;fill-rule:evenodd"/></svg>