<?xml version="1.0" encoding="utf-8"?>
<!-- Generator: Adobe Illustrator 21.1.0, SVG Export Plug-In . SVG Version: 6.00 Build 0)  -->
<svg version="1.0" id="Layer_1" xmlns="http://www.w3.org/2000/svg" xmlns:xlink="http://www.w3.org/1999/xlink" x="0px" y="0px"
	 viewBox="0 0 1366 768" style="enable-background:new 0 0 1366 768;" xml:space="preserve">
<g>
	<path d="M324.3,224h3.3l-1.7,13.5h-3.2L324.3,224z M326.6,221c-0.6,0-1.1-0.3-1.5-0.8c-0.4-0.5-0.6-1.1-0.6-1.8
		c0-0.7,0.2-1.3,0.6-1.7c0.4-0.5,0.9-0.7,1.5-0.7s1.1,0.2,1.5,0.7c0.4,0.5,0.6,1.1,0.6,1.7c0,0.7-0.2,1.3-0.6,1.8
		S327.2,221,326.6,221L326.6,221z"/>
	<path d="M330.8,216.5h9.5l-0.5,3.7H334l-0.6,4.7h5.5l-0.5,3.7H333l-1.1,8.9h-3.6L330.8,216.5z"/>
	<path d="M341.7,224h3.3l-0.9,7.2l0,0.4c0,0.7,0.2,1.2,0.5,1.6c0.3,0.4,0.8,0.6,1.3,0.6c0.5,0,1-0.2,1.4-0.7c0.4-0.5,0.6-1.2,0.7-2
		l0.8-7.2h3.3l-0.7,5.5c-0.3,2.1-0.5,3.7-0.9,4.7c-0.3,1-0.9,1.8-1.6,2.5c-0.8,0.7-1.8,1-3,1c-1.6,0-2.8-0.5-3.7-1.6
		c-0.9-1-1.3-2.6-1.3-4.5c0-0.8,0-1.5,0.1-2.1L341.7,224z"/>
	<path d="M357.9,224l-0.2,1.4c0.7-0.6,1.2-1,1.6-1.3c0.4-0.3,0.9-0.4,1.4-0.4c0.9,0,1.6,0.4,2.2,1.2c0.5,0.8,0.8,1.9,0.8,3.2
		c0,0.4,0,0.8-0.1,1.1l-1,8.2h-3.2l1-7.8c0-0.3,0.1-0.6,0.1-1.1c0-1.2-0.4-1.8-1.2-1.8c-0.5,0-0.9,0.3-1.3,0.9
		c-0.4,0.6-0.6,1.3-0.7,2.3l-1,7.6H353l1.7-13.5H357.9z"/>
	<path d="M375,215h3.3l-2.8,22.5h-3.3l0.1-1.1c-1.3,0.9-2.4,1.4-3.4,1.4c-1.2,0-2.2-0.6-3.1-1.8c-0.8-1.2-1.2-2.6-1.2-4.4
		c0-2.2,0.5-4.1,1.6-5.6c1.1-1.5,2.3-2.3,3.8-2.3c0.6,0,1.1,0.1,1.6,0.4c0.5,0.2,0.9,0.6,1.3,0.9s0.6,0.6,0.7,0.7L375,215z
		 M368,231.1c0,1,0.2,1.8,0.7,2.4c0.4,0.6,1,0.9,1.7,0.9c0.7,0,1.3-0.4,1.9-1.2c0.6-0.8,0.9-1.7,0.9-2.7c0-0.9-0.2-1.7-0.7-2.3
		s-1-0.9-1.7-0.9c-0.8,0-1.5,0.4-2,1.1C368.3,229.1,368,230,368,231.1z"/>
</g>
<g>
	<path d="M380.8,214.4h9.9v4.5h-4.1v4.3h3.6v4.3h-3.6v9.5h-5.9V214.4z"/>
	<path d="M397.8,214.4v2.9H392v-2.9H397.8z M397.8,218.5v18.5H392v-18.5H397.8z"/>
	<path d="M405.6,214.4v22.5h-5.8v-22.5H405.6z"/>
	<path d="M413.2,218.5l-0.1,1.8c0.4-0.7,1-1.2,1.6-1.6c0.6-0.3,1.3-0.5,2.1-0.5c1.5,0,2.7,0.7,3.5,2.1c0.5-0.7,1-1.2,1.6-1.6
		c0.6-0.3,1.3-0.5,2-0.5c1,0,1.7,0.2,2.4,0.7c0.6,0.5,1,1,1.2,1.7s0.3,1.8,0.3,3.3v13.1h-5.5v-12c0-1.6-0.1-2.6-0.2-2.9
		c-0.1-0.4-0.4-0.6-0.7-0.6c-0.4,0-0.7,0.2-0.8,0.6c-0.1,0.4-0.2,1.3-0.2,2.9v12h-5.5v-11.7c0-1.8,0-2.9-0.1-3.3
		c-0.1-0.4-0.3-0.5-0.7-0.5c-0.3,0-0.5,0.1-0.6,0.3s-0.3,0.4-0.3,0.7s0,0.9,0,1.7v12.8h-5.5v-18.5H413.2z"/>
	<path d="M441.1,224.4h-5v-1c0-0.9,0-1.4-0.1-1.6c-0.1-0.2-0.3-0.3-0.7-0.3c-0.3,0-0.6,0.1-0.7,0.3c-0.2,0.2-0.2,0.5-0.2,0.9
		c0,0.6,0,1,0.1,1.2c0.1,0.3,0.3,0.6,0.7,0.9c0.4,0.3,1.2,0.8,2.4,1.4c1.6,0.8,2.7,1.5,3.2,2.3c0.5,0.7,0.8,1.7,0.8,3.1
		c0,1.5-0.2,2.6-0.6,3.4s-1,1.4-2,1.8c-0.9,0.4-2,0.6-3.3,0.6c-1.4,0-2.7-0.2-3.7-0.7s-1.7-1-2.1-1.8c-0.4-0.8-0.6-1.9-0.6-3.5v-0.9
		h5v1.2c0,1,0.1,1.6,0.2,1.9c0.1,0.3,0.4,0.4,0.7,0.4c0.4,0,0.7-0.1,0.8-0.3c0.2-0.2,0.2-0.6,0.2-1.3c0-0.9-0.1-1.4-0.3-1.7
		c-0.2-0.2-1.3-0.9-3.3-2c-1.7-0.9-2.7-1.8-3-2.5c-0.4-0.8-0.5-1.7-0.5-2.7c0-1.5,0.2-2.6,0.6-3.3c0.4-0.7,1.1-1.2,2-1.6
		c0.9-0.4,2-0.6,3.2-0.6c1.2,0,2.3,0.2,3.1,0.5s1.5,0.7,2,1.2c0.5,0.5,0.7,1,0.8,1.4c0.1,0.4,0.1,1.1,0.1,2V224.4z"/>
</g>
</svg>
