<svg id="Layer_1" data-name="Layer 1" xmlns="http://www.w3.org/2000/svg" viewBox="0 0 35.3 34.74"><defs><style>.cls-1{fill:#616161;}</style></defs><title>2ntitled-1</title><path class="cls-1" d="M683.77,487l-.12,2.22a5.74,5.74,0,0,1,2-2,5.1,5.1,0,0,1,2.6-.66,5,5,0,0,1,4.48,2.64,6.42,6.42,0,0,1,2-2,5.32,5.32,0,0,1,5.5.22,3.83,3.83,0,0,1,1.52,2.15,18.34,18.34,0,0,1,.33,4.14v16.58h-6.89V495.12a19.71,19.71,0,0,0-.2-3.7.9.9,0,0,0-.94-.71.94.94,0,0,0-1,.7,18.16,18.16,0,0,0-.22,3.71v15.21H686V495.51a27.91,27.91,0,0,0-.16-4.12.86.86,0,0,0-.93-.68,1.09,1.09,0,0,0-.81.36,1.37,1.37,0,0,0-.36.88c0,.34,0,1.08,0,2.2v16.18h-6.89V487Z" transform="translate(-676.76 -475.58)"/><path class="cls-1" d="M711.68,485.68v2.21h-9.76v-1.82q4.3-4.81,5.11-5.85a3.15,3.15,0,0,0,.8-1.76c0-.56-.32-.83-1-.83a1,1,0,0,0-.76.24,1.55,1.55,0,0,0-.21,1v1.22h-4v-.52a3.61,3.61,0,0,1,1.18-3.05,5.88,5.88,0,0,1,3.6-.91,7.55,7.55,0,0,1,3.93.88,2.63,2.63,0,0,1,1.43,2.33,3.78,3.78,0,0,1-.79,2.21,32.66,32.66,0,0,1-3.09,3.44L707,485.68Z" transform="translate(-676.76 -475.58)"/></svg>